<?xml version="1.0" encoding="UTF-8"?>
<svg id="Layer_1" xmlns="http://www.w3.org/2000/svg" version="1.1" viewBox="0 0 1080 1080">
  <!-- Generator: Adobe Illustrator 29.1.0, SVG Export Plug-In . SVG Version: 2.1.0 Build 142)  -->
  <defs>
    <style>
      .st0 {
        fill: #424242;
      }
    </style>
  </defs>
  <path class="st0" d="M817.14,412.46c3.42-3.42,8.96-3.42,12.38,0h0c3.42,3.42,3.42,8.96,0,12.39l-78.3,78.3c-5.84,5.84-1.7,15.83,6.56,15.83h165.78c8.26,0,12.4-9.99,6.56-15.83l-96.37-96.37c-5.75-5.75-15.07-5.75-20.83,0l-261.23,261.23c-3.16,3.16-8.28,3.16-11.44,0l-116.27-116.27c-6.47-6.47-6.47-17,0-23.47l115.81-115.81c3.42-3.42,8.96-3.42,12.38,0h0c3.42,3.42,3.42,8.96,0,12.38l-78.3,78.3c-5.84,5.84-1.7,15.83,6.56,15.83h165.78c8.26,0,12.4-9.99,6.56-15.83l-96.37-96.37c-5.75-5.75-15.07-5.75-20.83,0l-261.23,261.23c-3.16,3.16-8.28,3.16-11.44,0l-116-116c-2.94-2.94-4.85-6.83-5.1-10.98-.29-4.81,1.46-9.39,4.83-12.77l115.8-115.8c3.42-3.42,8.96-3.42,12.38,0h0c3.42,3.42,3.42,8.96,0,12.38l-78.3,78.3c-5.84,5.84-1.7,15.83,6.56,15.83h165.78c8.26,0,12.4-9.99,6.56-15.83l-96.37-96.37c-5.75-5.75-15.07-5.75-20.83,0l-116.18,116.18c-4.32,4.32-7.04,10.08-7.25,16.19-.23,6.62,2.24,12.88,6.9,17.54l116.53,116.53c5.75,5.75,15.07,5.75,20.83,0l133.11-133.11c.03,6.01,2.32,12.01,6.9,16.59l116.52,116.53c5.75,5.75,15.07,5.75,20.83,0l153.15-153.15c.04,3.01.66,6.07,1.91,9.03,3.74,8.86,12.67,14.41,22.29,14.41h193.6c5.35,0,8.69,3.46,10.04,6.71s1.43,8.05-2.36,11.84l-105.49,105.49c-3.42,3.42-8.96,3.42-12.38,0h0c-3.42-3.42-3.42-8.96,0-12.38l78.3-78.3c5.84-5.84,1.7-15.83-6.56-15.83h-165.78c-8.26,0-12.4,9.99-6.56,15.83l96.37,96.37c5.75,5.75,15.07,5.75,20.83,0l106.22-106.22c5.26-5.26,6.72-12.81,3.79-19.67s-9.58-10.82-16.83-10.82h-193.74c-8.18,0-13.29-5.29-15.34-10.25-2.05-4.95-2.18-12.3,3.59-18.08l95.7-95.7Z"/>
</svg>