<?xml version="1.0" encoding="UTF-8"?>
<svg id="Layer_1" data-name="Layer 1" xmlns="http://www.w3.org/2000/svg" viewBox="0 0 1080 366.53">
  <defs>
    <style>
      .cls-1 {
        fill: #232323;
      }
    </style>
  </defs>
  <path class="cls-1" d="M909.3,13.32c4.56-4.56,11.95-4.56,16.5,0h0c4.56,4.56,4.56,11.95,0,16.5l-104.34,104.34c-7.78,7.78-2.27,21.09,8.74,21.09h220.91c11.01,0,16.52-13.31,8.74-21.09L931.42,5.75c-7.66-7.66-20.09-7.66-27.75,0l-348.1,348.1c-4.21,4.21-11.03,4.21-15.24,0l-154.93-154.93c-8.62-8.62-8.63-22.65-.01-31.28L539.7,13.32c4.56-4.56,11.95-4.56,16.5,0h0c4.56,4.56,4.56,11.95,0,16.5l-104.34,104.34c-7.78,7.78-2.27,21.09,8.74,21.09h220.91c11.01,0,16.52-13.31,8.74-21.09L561.83,5.75c-7.66-7.66-20.09-7.66-27.75,0L185.98,353.84c-4.21,4.21-11.03,4.21-15.24,0L16.17,199.27c-3.92-3.92-6.47-9.1-6.8-14.64-.38-6.42,1.94-12.51,6.44-17.01L170.11,13.32c4.56-4.56,11.95-4.56,16.5,0h0c4.56,4.56,4.56,11.95,0,16.5l-104.34,104.34c-7.78,7.78-2.27,21.09,8.74,21.09h220.91c11.01,0,16.52-13.31,8.74-21.09L192.24,5.75c-7.66-7.66-20.09-7.66-27.75,0L9.68,160.56C3.92,166.32.3,173.99.02,182.14c-.31,8.82,2.99,17.16,9.19,23.37l155.27,155.28c7.66,7.66,20.09,7.66,27.75,0l177.38-177.38c.04,8.01,3.1,16,9.19,22.1l155.27,155.28c7.66,7.66,20.09,7.66,27.75,0l204.08-204.08c.06,4.02.89,8.09,2.55,12.03,4.99,11.8,16.88,19.2,29.7,19.2h257.98c7.13,0,11.59,4.62,13.37,8.94,1.79,4.32,1.9,10.73-3.14,15.78l-140.57,140.57c-4.56,4.56-11.95,4.56-16.5,0h0c-4.56-4.56-4.56-11.95,0-16.5l104.34-104.34c7.78-7.78,2.27-21.09-8.74-21.09h-220.91c-11.01,0-16.52,13.31-8.74,21.09l128.41,128.41c7.66,7.66,20.09,7.66,27.75,0l141.55-141.55c7.01-7.01,8.95-17.07,5.05-26.21-3.8-8.88-12.77-14.42-22.42-14.42h-258.16c-10.9,0-17.71-7.06-20.44-13.66-2.73-6.6-2.91-16.39,4.78-24.1l127.53-127.53Z"/>
</svg>