<?xml version="1.0" encoding="UTF-8"?>
<svg id="Layer_1" xmlns="http://www.w3.org/2000/svg" version="1.1" viewBox="0 0 1080 1080">
  <!-- Generator: Adobe Illustrator 29.1.0, SVG Export Plug-In . SVG Version: 2.1.0 Build 142)  -->
  <defs>
    <style>
      .st0 {
        fill: none;
      }
    </style>
  </defs>
  <g id="svg_idea_text">
    <path class="st0" d="M53.48,525c-1.51,0-3.08.54-4.69,1.63-1.61,1.09-3.05,2.69-4.31,4.81-1.46,2.47-2.57,5.05-3.33,7.72-.76,2.68-1.13,5.28-1.13,7.8,0,3.28.62,5.81,1.85,7.57,1.23,1.77,2.89,2.65,4.95,2.65,1.56,0,3.14-.59,4.73-1.78,1.59-1.19,3.01-2.8,4.27-4.85,1.26-2.04,2.29-4.44,3.1-7.19.81-2.75,1.21-5.69,1.21-8.82s-.58-5.5-1.74-7.12c-1.16-1.62-2.8-2.42-4.92-2.42Z"/>
    <path class="st0" d="M114.1,525.76c-.75-.8-1.81-1.21-3.16-1.21-1.46,0-3.33.94-5.61,2.83-2.29,1.88-4.56,4.79-6.82,8.7-1.76,3.06-3.06,5.84-3.92,8.33-.85,2.49-1.28,4.59-1.28,6.29,0,1.46.33,2.56.98,3.32s1.48,1.13,2.49,1.13c1.41,0,2.95-.84,4.63-2.53s3.65-4.18,5.92-7.5c5.28-7.74,7.91-13.06,7.91-15.98,0-1.46-.38-2.59-1.13-3.39Z"/>
    <path class="st0" d="M848.57,525.76c-.75-.8-1.81-1.21-3.16-1.21-1.46,0-3.33.94-5.61,2.83-2.29,1.88-4.56,4.79-6.82,8.7-1.76,3.06-3.06,5.84-3.92,8.33-.85,2.49-1.28,4.59-1.28,6.29,0,1.46.33,2.56.98,3.32s1.48,1.13,2.49,1.13c1.41,0,2.95-.84,4.63-2.53s3.65-4.18,5.92-7.5c5.28-7.74,7.91-13.06,7.91-15.98,0-1.46-.38-2.59-1.13-3.39Z"/>
    <path class="st0" d="M203.78,525.68c-.75-.75-1.76-1.13-3.01-1.13-1.41,0-3.18.94-5.31,2.83-2.14,1.88-4.28,4.79-6.44,8.7-1.71,3.06-2.95,5.84-3.73,8.33-.78,2.49-1.17,4.61-1.17,6.37,0,1.41.31,2.49.94,3.24.63.75,1.39,1.13,2.3,1.13,1.31,0,2.78-.84,4.41-2.53,1.63-1.68,3.5-4.18,5.61-7.5,2.46-3.77,4.33-6.98,5.61-9.65,1.28-2.66,1.92-4.9,1.92-6.71,0-1.31-.38-2.34-1.13-3.09Z"/>
    <path class="st0" d="M470.55,543.36c.81-2.75,1.21-5.69,1.21-8.82s-.58-5.5-1.74-7.12c-1.16-1.62-2.8-2.42-4.92-2.42-1.51,0-3.08.54-4.69,1.63-1.61,1.09-3.05,2.69-4.31,4.81-1.46,2.47-2.57,5.05-3.33,7.72-.76,2.68-1.13,5.28-1.13,7.8,0,3.28.62,5.81,1.85,7.57,1.23,1.77,2.89,2.65,4.95,2.65,1.56,0,3.14-.59,4.73-1.78,1.59-1.19,3.01-2.8,4.27-4.85,1.26-2.04,2.29-4.44,3.1-7.19Z"/>
    <path class="st0" d="M766.17,525c-1.51,0-3.08.54-4.69,1.63-1.61,1.09-3.05,2.69-4.31,4.81-1.46,2.47-2.57,5.05-3.33,7.72-.76,2.68-1.13,5.28-1.13,7.8,0,3.28.62,5.81,1.85,7.57,1.23,1.77,2.89,2.65,4.95,2.65,1.56,0,3.14-.59,4.73-1.78,1.59-1.19,3.01-2.8,4.27-4.85,1.26-2.04,2.29-4.44,3.1-7.19.81-2.75,1.21-5.69,1.21-8.82s-.58-5.5-1.74-7.12c-1.16-1.62-2.8-2.42-4.92-2.42Z"/>
    <path class="st0" d="M637.18,529c0-1.41-.34-2.54-1.02-3.39-.68-.85-1.6-1.28-2.75-1.28s-2.32.38-3.5,1.13-2.32,1.87-3.43,3.35c-1.11,1.48-2.15,3.3-3.13,5.46-.98,2.16-1.8,4.62-2.45,7.39,5.28-.25,9.31-1.56,12.1-3.92,2.79-2.36,4.18-5.28,4.18-8.74Z"/>
    <path class="st0" d="M373.72,524.55c-1.46,0-3.33.94-5.61,2.83-2.29,1.88-4.56,4.79-6.82,8.7-1.76,3.06-3.06,5.84-3.92,8.33-.85,2.49-1.28,4.59-1.28,6.29,0,1.46.33,2.56.98,3.32s1.48,1.13,2.49,1.13c1.41,0,2.95-.84,4.63-2.53s3.65-4.18,5.92-7.5c5.28-7.74,7.91-13.06,7.91-15.98,0-1.46-.38-2.59-1.13-3.39-.75-.8-1.81-1.21-3.16-1.21Z"/>
    <path class="st0" d="M259.4,525.76c-.75-.8-1.81-1.21-3.16-1.21-1.46,0-3.33.94-5.61,2.83-2.29,1.88-4.56,4.79-6.82,8.7-1.76,3.06-3.06,5.84-3.92,8.33-.85,2.49-1.28,4.59-1.28,6.29,0,1.46.33,2.56.98,3.32s1.48,1.13,2.49,1.13c1.41,0,2.95-.84,4.63-2.53s3.65-4.18,5.92-7.5c5.28-7.74,7.91-13.06,7.91-15.98,0-1.46-.38-2.59-1.13-3.39Z"/>
    <path class="st0" d="M421.76,513.95c-1.63-1.12-4.03-1.68-7.2-1.68-.45,0-.94.03-1.47.08-.53.05-1.09.12-1.7.22l-4.97,22.31c.55.05,1.07.09,1.54.11.48.03.92.04,1.32.04,2.21,0,4.23-.41,6.07-1.24,1.83-.82,3.4-1.93,4.71-3.33s2.32-2.98,3.05-4.75c.73-1.77,1.09-3.63,1.09-5.58,0-2.99-.82-5.05-2.45-6.18Z"/>
    <path class="st0" d="M232.12,529c0-1.41-.34-2.54-1.02-3.39-.68-.85-1.6-1.28-2.75-1.28s-2.32.38-3.5,1.13-2.32,1.87-3.43,3.35c-1.11,1.48-2.15,3.3-3.13,5.46-.98,2.16-1.8,4.62-2.45,7.39,5.28-.25,9.31-1.56,12.1-3.92,2.79-2.36,4.18-5.28,4.18-8.74Z"/>
    <path class="st0" d="M308.13,525c-1.51,0-3.08.54-4.69,1.63-1.61,1.09-3.05,2.69-4.31,4.81-1.46,2.47-2.57,5.05-3.33,7.72-.76,2.68-1.13,5.28-1.13,7.8,0,3.28.62,5.81,1.85,7.57,1.23,1.77,2.89,2.65,4.95,2.65,1.56,0,3.14-.59,4.73-1.78,1.59-1.19,3.01-2.8,4.27-4.85,1.26-2.04,2.29-4.44,3.1-7.19.81-2.75,1.21-5.69,1.21-8.82s-.58-5.5-1.74-7.12c-1.16-1.62-2.8-2.42-4.92-2.42Z"/>
    <path class="st0" d="M510.42,529c0-1.41-.34-2.54-1.02-3.39-.68-.85-1.6-1.28-2.75-1.28s-2.32.38-3.5,1.13-2.32,1.87-3.43,3.35c-1.11,1.48-2.15,3.3-3.13,5.46-.98,2.16-1.8,4.62-2.45,7.39,5.28-.25,9.31-1.56,12.1-3.92,2.79-2.36,4.18-5.28,4.18-8.74Z"/>
    <path d="M61.32,527.15c-1.02-1.28-2.25-2.26-3.67-2.94s-2.96-1.02-4.61-1.02c-2.05,0-4.11.54-6.18,1.62-2.07,1.08-3.96,2.56-5.66,4.45-1.59,1.76-2.88,3.87-3.9,6.29-.15-.09-.34-.14-.59-.14-.45,0-1.16.08-2.11.23s-2.16.23-3.62.23-2.64-.05-3.69-.15c-1.06-.1-1.93-.15-2.64-.15-.9,0-1.36.3-1.36.9,0,.35.1.59.3.72.2.13.45.2.75.23.3.03.63.04.98.04s.7.05,1.06.15c1.06.3,1.58,1.11,1.58,2.41,0,.15-.08.7-.23,1.66l-1.13,5.73c-.15.7-.37,1.71-.64,3.01-.28,1.31-.69,2.86-1.24,4.67-.7.7-1.6,1.21-2.68,1.51-1.08.3-2.37.45-3.88.45-3.82,0-6.83-1.37-9.04-4.11-2.21-2.74-3.32-6.57-3.32-11.49,0-4.57.93-8.93,2.79-13.08s4.55-7.8,8.06-10.96c2.36-2.11,4.87-3.69,7.54-4.75,2.66-1.06,5.07-1.58,7.24-1.58,1.46,0,2.35.35,2.68,1.06.33.7.49,1.99.49,3.84,0,.85-.03,1.6-.08,2.22-.05.63-.08,1.17-.08,1.62,0,1.06.3,1.58.9,1.58.55,0,.9-.33,1.06-.98l2.19-9.72c.05-.1.08-.28.08-.53,0-1-1.26-1.51-3.77-1.51-3.52,0-7.16.62-10.93,1.85-3.77,1.23-7.29,3.05-10.55,5.46-4.42,3.32-7.76,7.07-10.02,11.27-2.26,4.2-3.39,8.76-3.39,13.68,0,2.71.44,5.2,1.32,7.46s2.11,4.2,3.69,5.8c1.58,1.61,3.47,2.85,5.65,3.73s4.59,1.32,7.2,1.32c4.42,0,8.39-1.08,11.91-3.24.15-1.76.35-3.24.6-4.45.25-1.21.45-2.21.6-3.01l.83-4.22c.35-1.71.72-3.06,1.09-4.07.38-1,.87-1.76,1.47-2.26.35-.25.72-.41,1.09-.49s.73-.15,1.05-.23c.06-.01.11-.03.16-.05-.77,2.31-1.18,4.77-1.18,7.4,0,2.16.3,4.13.9,5.92.6,1.78,1.41,3.3,2.44,4.56,1.02,1.26,2.24,2.22,3.64,2.9,1.4.68,2.9,1.02,4.5,1.02,2.1,0,4.21-.55,6.34-1.66s4.02-2.62,5.7-4.56c1.67-1.93,3.03-4.18,4.09-6.75,1.05-2.56,1.57-5.27,1.57-8.14,0-2.26-.3-4.3-.9-6.1-.6-1.81-1.41-3.35-2.44-4.64ZM58.93,543.36c-.81,2.75-1.84,5.15-3.1,7.19-1.26,2.04-2.69,3.66-4.27,4.85-1.59,1.19-3.16,1.78-4.73,1.78-2.07,0-3.72-.88-4.95-2.65-1.24-1.77-1.85-4.29-1.85-7.57,0-2.52.38-5.12,1.13-7.8.76-2.68,1.87-5.25,3.33-7.72,1.26-2.12,2.7-3.72,4.31-4.81,1.61-1.09,3.18-1.63,4.69-1.63,2.12,0,3.76.81,4.92,2.42,1.16,1.62,1.74,3.99,1.74,7.12s-.4,6.07-1.21,8.82Z"/>
    <path d="M82,524.55h-5.5l1.81-6.33c.25-.9.38-1.46.38-1.66,0-.5-.5-.75-1.51-.75s-1.65.1-2.07.3c-.43.2-.74.65-.94,1.36l-1.88,7.08h-4.75c-.6,0-.9.45-.9,1.36,0,.1.05.2.15.3.1.1.23.15.38.15h4.6l-4.07,14.47c-1.91,6.73-2.86,11.33-2.86,13.79,0,1.21.24,2.15.72,2.83s1.09,1.02,1.85,1.02c.85,0,1.91-.5,3.16-1.51,1.26-1,2.54-2.49,3.84-4.45,1.71-2.51,2.56-4.14,2.56-4.9,0-.5-.2-.75-.6-.75-.35,0-.62.29-.79.87-.18.58-.62,1.39-1.32,2.45-1.71,2.61-2.91,3.92-3.62,3.92-.25,0-.49-.15-.72-.45s-.34-.7-.34-1.21c0-.75.23-2.02.68-3.81.45-1.78,1.06-4.11,1.81-6.97l4.07-15.3h5.5c.6,0,.9-.45.9-1.36,0-.3-.18-.45-.53-.45Z"/>
    <path d="M120.5,547.69c-.4,0-.7.25-.9.75-.2.5-.63,1.21-1.28,2.11-1.51,2.11-2.69,3.17-3.54,3.17-.55,0-.83-.53-.83-1.58,0-.2.05-.63.15-1.28.1-.65.3-1.51.6-2.56l6.33-22.99c.25-.75.38-1.31.38-1.66,0-.55-.13-.89-.38-1.02-.25-.12-.73-.19-1.43-.19-.55,0-1.02.11-1.4.34s-.69.48-.94.75c-.25.28-.47.53-.64.75-.18.23-.37.34-.57.34-.35,0-.94-.26-1.77-.79s-1.92-.79-3.28-.79c-2.01,0-4.33.77-6.97,2.3-2.64,1.53-5.21,3.88-7.73,7.05-2.66,3.32-4.63,6.53-5.92,9.65-1.28,3.12-1.92,6.05-1.92,8.82s.55,4.7,1.66,6.1,2.59,2.11,4.45,2.11c2.51,0,5.2-1.63,8.07-4.9,2.86-3.27,6.18-8.14,9.95-14.62l-2.26,8.37c-.4,1.46-.77,2.85-1.09,4.18-.33,1.33-.49,2.63-.49,3.88,0,2.16.8,3.24,2.41,3.24,2.11,0,4.55-2.01,7.31-6.03,1.61-2.26,2.41-3.92,2.41-4.97,0-.35-.13-.53-.38-.53ZM107.32,545.13c-2.26,3.32-4.23,5.82-5.92,7.5s-3.23,2.53-4.63,2.53c-1.01,0-1.83-.38-2.49-1.13s-.98-1.86-.98-3.32c0-1.71.43-3.81,1.28-6.29.85-2.49,2.16-5.26,3.92-8.33,2.26-3.92,4.53-6.82,6.82-8.7,2.29-1.88,4.16-2.83,5.61-2.83,1.36,0,2.41.4,3.16,1.21.75.8,1.13,1.93,1.13,3.39,0,2.91-2.64,8.24-7.91,15.98Z"/>
    <path d="M154.04,546.41c-.25,0-.51.29-.79.87-.28.58-.84,1.5-1.7,2.75-1.01,1.51-1.9,2.65-2.68,3.43-.78.78-1.55,1.17-2.3,1.17s-1.13-.55-1.13-1.66c0-.4.13-.98.38-1.73l5.88-17.41c.95-2.81,1.43-4.97,1.43-6.48,0-1.31-.4-2.34-1.21-3.09-.8-.75-1.94-1.13-3.39-1.13-2.51,0-5.25,1.47-8.21,4.41-2.97,2.94-6.13,7.4-9.5,13.38l2.04-7.39c.55-1.91.9-3.48,1.06-4.71.15-1.23.23-2.02.23-2.37,0-2.36-.86-3.54-2.56-3.54-2.01,0-4.47,1.73-7.39,5.2-1.16,1.31-1.97,2.41-2.45,3.32-.48.9-.72,1.43-.72,1.58,0,.45.17.68.53.68.25,0,.61-.35,1.09-1.06.48-.7,1.02-1.47,1.62-2.3s1.25-1.59,1.96-2.3c.7-.7,1.41-1.05,2.11-1.05s1.06.48,1.06,1.43c0,.9-.2,2.19-.6,3.84-.4,1.66-.95,3.72-1.66,6.18l-5.2,17.48c-.2.6-.3.98-.3,1.13s.06.3.19.45.26.23.42.23h3.24c.45,0,.8-.31,1.05-.94.25-.63.55-1.54.9-2.75s.8-2.68,1.36-4.41c.55-1.73,1.36-3.73,2.41-5.99,1.26-2.71,2.61-5.16,4.07-7.35,1.46-2.19,2.89-4.04,4.3-5.58,1.41-1.53,2.69-2.71,3.84-3.54,1.15-.83,2.08-1.24,2.79-1.24,1.46,0,2.19.8,2.19,2.41,0,.3-.05.75-.15,1.36-.1.6-.3,1.33-.6,2.19l-3.09,9.04c-1.26,3.62-2.17,6.62-2.75,9.01-.58,2.39-.87,4.16-.87,5.31,0,2.31.9,3.47,2.71,3.47,1,0,2.18-.47,3.54-1.39,1.36-.93,2.69-2.35,3.99-4.26,1.15-1.66,2-3,2.52-4.03.53-1.03.79-1.67.79-1.92,0-.45-.15-.68-.45-.68Z"/>
    <path d="M178.61,547.31c-.2,0-.44.31-.72.94-.28.63-.82,1.62-1.62,2.98-1.46,2.56-2.81,3.84-4.07,3.84-.7,0-1.06-.53-1.06-1.58,0-.45.23-1.43.68-2.94l5.35-16.73c.5-1.51.93-2.89,1.28-4.14.35-1.26.53-2.41.53-3.47s-.25-1.78-.75-2.34c-.5-.55-1.18-.83-2.04-.83-1.96,0-4.22,1.61-6.78,4.82-.9,1.16-1.56,2.11-1.96,2.86-.4.75-.6,1.23-.6,1.43,0,.45.13.68.38.68.2,0,.51-.31.94-.94.43-.63.9-1.33,1.43-2.11.53-.78,1.09-1.48,1.7-2.11.6-.63,1.21-.94,1.81-.94.45,0,.74.13.87.38.12.25.19.65.19,1.21,0,.7-.15,1.55-.45,2.53-.3.98-.68,2.15-1.13,3.5l-3.09,9.04c-.96,2.71-1.71,5.04-2.26,6.97-.55,1.93-.83,3.55-.83,4.86,0,2.51,1,3.77,3.01,3.77,1,0,2.08-.44,3.24-1.32,1.15-.88,2.31-2.2,3.47-3.96,2.01-3.06,3.01-5.02,3.01-5.88,0-.35-.18-.53-.53-.53Z"/>
    <path d="M179.36,517.92c.9,0,1.71-.53,2.41-1.58s1.06-2.31,1.06-3.77c0-.8-.2-1.46-.6-1.96-.4-.5-.93-.75-1.58-.75-.9,0-1.72.52-2.45,1.55-.73,1.03-1.09,2.15-1.09,3.35,0,1.01.2,1.78.6,2.34.4.55.95.83,1.66.83Z"/>
    <path d="M209.96,547.46c-.45,0-.78.28-.98.83-.2.55-.58,1.28-1.13,2.19-1.31,2.06-2.39,3.09-3.24,3.09-.25,0-.48-.13-.68-.38-.2-.25-.3-.55-.3-.9s.05-.85.15-1.51c.1-.65.28-1.48.53-2.49l11.46-41.98c.1-.25.15-.43.15-.53v-.3c0-.4-.13-.6-.38-.6-.45,0-1.02.25-1.7.75-.68.5-1.72.88-3.13,1.13-.75.15-1.42.24-2,.26-.58.03-1.08.06-1.51.11-.43.05-.75.14-.98.26-.23.13-.34.34-.34.64,0,.5.4.75,1.21.75.15,0,.31-.01.49-.04.17-.02.34-.04.49-.04.55,0,.99.14,1.32.41.33.28.49.59.49.94,0,.2-.04.55-.11,1.06-.08.5-.21,1.13-.41,1.88l-3.17,11.98c-1.71-1.31-3.39-1.96-5.05-1.96-2.26,0-4.72.78-7.39,2.34-2.66,1.56-5.18,3.84-7.54,6.86-2.31,2.97-4.07,6.14-5.27,9.53-1.21,3.39-1.81,6.49-1.81,9.31,0,2.56.54,4.54,1.62,5.92,1.08,1.38,2.5,2.07,4.26,2.07,2.41,0,4.99-1.61,7.73-4.82,2.74-3.21,5.89-8.04,9.46-14.47l-2.04,8.14c-.4,1.61-.77,3.07-1.09,4.37-.33,1.31-.49,2.54-.49,3.69,0,2.16.85,3.24,2.56,3.24s3.89-1.83,6.41-5.5c.95-1.36,1.66-2.54,2.11-3.54.45-1,.68-1.71.68-2.11s-.13-.6-.38-.6ZM197.37,545.13c-2.11,3.32-3.98,5.82-5.61,7.5-1.63,1.68-3.1,2.53-4.41,2.53-.9,0-1.67-.38-2.3-1.13-.63-.75-.94-1.83-.94-3.24,0-1.76.39-3.88,1.17-6.37.78-2.49,2.02-5.26,3.73-8.33,2.16-3.92,4.31-6.82,6.44-8.7,2.13-1.88,3.91-2.83,5.31-2.83,1.25,0,2.26.38,3.01,1.13.75.75,1.13,1.78,1.13,3.09,0,1.81-.64,4.05-1.92,6.71-1.28,2.66-3.15,5.88-5.61,9.65Z"/>
    <path d="M231.36,539.32c3.52-2.21,5.27-5.17,5.27-8.89,0-2.21-.71-4.02-2.12-5.43-1.42-1.41-3.26-2.11-5.53-2.11-1.92,0-3.93.58-6.03,1.73-2.1,1.16-4.11,2.91-6.03,5.28-2.07,2.51-3.64,5.16-4.7,7.95-1.06,2.79-1.59,5.56-1.59,8.33,0,1.96.25,3.74.75,5.35.5,1.61,1.19,2.98,2.07,4.11.88,1.13,1.91,2.01,3.09,2.64,1.18.63,2.45.94,3.81.94,3.52,0,6.91-2.11,10.17-6.33.8-1.06,1.39-1.96,1.77-2.71.38-.75.57-1.33.57-1.73,0-.5-.15-.75-.45-.75-.45,0-.78.3-.98.9-.2.6-.68,1.36-1.43,2.26-2.56,3.07-5.2,4.6-7.91,4.6-1.96,0-3.56-.75-4.79-2.26-1.23-1.51-1.85-3.67-1.85-6.48,0-.55.08-1.63.23-3.24,6.93-.55,12.16-1.93,15.67-4.14ZM218.29,534.27c.98-2.16,2.02-3.98,3.13-5.46,1.11-1.48,2.25-2.6,3.43-3.35s2.35-1.13,3.5-1.13,2.07.43,2.75,1.28c.68.85,1.02,1.99,1.02,3.39,0,3.47-1.4,6.38-4.18,8.74-2.79,2.36-6.82,3.67-12.1,3.92.65-2.76,1.47-5.22,2.45-7.39Z"/>
    <path d="M265.8,547.69c-.4,0-.7.25-.9.75-.2.5-.63,1.21-1.28,2.11-1.51,2.11-2.69,3.17-3.54,3.17-.55,0-.83-.53-.83-1.58,0-.2.05-.63.15-1.28.1-.65.3-1.51.6-2.56l6.33-22.99c.25-.75.38-1.31.38-1.66,0-.55-.13-.89-.38-1.02-.25-.12-.73-.19-1.43-.19-.55,0-1.02.11-1.4.34s-.69.48-.94.75c-.25.28-.47.53-.64.75-.18.23-.37.34-.57.34-.35,0-.94-.26-1.77-.79s-1.92-.79-3.28-.79c-2.01,0-4.33.77-6.97,2.3-2.64,1.53-5.21,3.88-7.73,7.05-2.66,3.32-4.63,6.53-5.92,9.65-1.28,3.12-1.92,6.05-1.92,8.82s.55,4.7,1.66,6.1,2.59,2.11,4.45,2.11c2.51,0,5.2-1.63,8.07-4.9,2.86-3.27,6.18-8.14,9.95-14.62l-2.26,8.37c-.4,1.46-.77,2.85-1.09,4.18-.33,1.33-.49,2.63-.49,3.88,0,2.16.8,3.24,2.41,3.24,2.11,0,4.55-2.01,7.31-6.03,1.61-2.26,2.41-3.92,2.41-4.97,0-.35-.13-.53-.38-.53ZM252.61,545.13c-2.26,3.32-4.23,5.82-5.92,7.5s-3.23,2.53-4.63,2.53c-1.01,0-1.83-.38-2.49-1.13s-.98-1.86-.98-3.32c0-1.71.43-3.81,1.28-6.29.85-2.49,2.16-5.26,3.92-8.33,2.26-3.92,4.53-6.82,6.82-8.7,2.29-1.88,4.16-2.83,5.61-2.83,1.36,0,2.41.4,3.16,1.21.75.8,1.13,1.93,1.13,3.39,0,2.91-2.64,8.24-7.91,15.98Z"/>
    <path d="M295.49,525.12c0-.28-.15-.42-.45-.42h-5.58c2.46-11.61,4.85-17.41,7.16-17.41.75,0,1.23.3,1.43.9.2.6.43,1.31.68,2.11.45,1.51,1.25,2.26,2.41,2.26.7,0,1.28-.28,1.73-.83.45-.55.68-1.26.68-2.11,0-1.31-.39-2.32-1.17-3.05-.78-.73-1.9-1.09-3.35-1.09s-2.83.41-4.26,1.22-2.76,2.03-3.99,3.65c-1.23,1.62-2.34,3.62-3.32,6-.98,2.38-1.74,5.16-2.3,8.35h-3.92c-.6,0-.9.46-.9,1.39,0,.28.17.42.53.42h3.84l-7.61,34.59c-.95,4.27-1.86,7.44-2.71,9.5-.85,2.06-1.78,3.09-2.79,3.09-.55,0-.93-.1-1.13-.3-.2-.2-.34-.48-.42-.83-.08-.35-.11-.78-.11-1.28s-.05-1.03-.15-1.58c-.1-.5-.39-.94-.87-1.32-.48-.38-1.02-.57-1.62-.57-.75,0-1.36.28-1.81.83-.45.55-.68,1.33-.68,2.34,0,1.21.45,2.2,1.36,2.98.9.78,2.09,1.17,3.54,1.17,2.11,0,3.88-.62,5.31-1.85,1.43-1.23,2.7-3.05,3.81-5.46,1.11-2.41,2.1-5.38,2.98-8.89s1.82-7.56,2.83-12.13l4.3-20.27h5.65c.6,0,.9-.46.9-1.39Z"/>
    <path d="M315.97,527.15c-1.02-1.28-2.25-2.26-3.67-2.94s-2.96-1.02-4.61-1.02c-2.05,0-4.11.54-6.18,1.62-2.07,1.08-3.96,2.56-5.66,4.45-1.7,1.88-3.07,4.14-4.12,6.78-1.05,2.64-1.57,5.49-1.57,8.55,0,2.16.3,4.13.9,5.92.6,1.78,1.41,3.3,2.44,4.56,1.02,1.26,2.24,2.22,3.64,2.9,1.4.68,2.9,1.02,4.5,1.02,2.1,0,4.21-.55,6.34-1.66s4.02-2.62,5.7-4.56c1.67-1.93,3.03-4.18,4.09-6.75,1.05-2.56,1.57-5.27,1.57-8.14,0-2.26-.3-4.3-.9-6.1-.6-1.81-1.41-3.35-2.44-4.64ZM313.57,543.36c-.81,2.75-1.84,5.15-3.1,7.19-1.26,2.04-2.69,3.66-4.27,4.85-1.59,1.19-3.16,1.78-4.73,1.78-2.07,0-3.72-.88-4.95-2.65-1.24-1.77-1.85-4.29-1.85-7.57,0-2.52.38-5.12,1.13-7.8.76-2.68,1.87-5.25,3.33-7.72,1.26-2.12,2.7-3.72,4.31-4.81,1.61-1.09,3.18-1.63,4.69-1.63,2.12,0,3.76.81,4.92,2.42,1.16,1.62,1.74,3.99,1.74,7.12s-.4,6.07-1.21,8.82Z"/>
    <path d="M342.29,523.57c-2.11,0-4.31,1.73-6.59,5.19-2.29,3.46-4.86,8.7-7.73,15.72l2.86-10.9c.45-1.75.75-3.26.9-4.51.15-1.25.23-2.08.23-2.48,0-1.15-.23-2.02-.68-2.59-.45-.58-1.06-.87-1.81-.87-1.86,0-4.15,1.61-6.86,4.82-1.16,1.36-1.99,2.49-2.49,3.39-.5.9-.75,1.46-.75,1.66,0,.5.17.75.53.75.2,0,.54-.34,1.02-1.02s1.01-1.43,1.58-2.26,1.19-1.59,1.85-2.3c.65-.7,1.31-1.06,1.96-1.06.75,0,1.13.48,1.13,1.43,0,.7-.1,1.55-.3,2.56-.2,1-.48,2.18-.83,3.53l-5.58,21.2c-.15.55-.23.88-.23.98,0,.6.6.9,1.81.9.65,0,1.13-.06,1.43-.19.3-.13.56-.41.79-.87s.48-1.1.75-1.95c.28-.85.69-2.01,1.24-3.46,3.06-7.92,5.74-13.84,8.03-17.75,2.29-3.91,3.86-5.87,4.71-5.87.3,0,.58.16.83.49.25.33.38.76.38,1.32,0,.7.19,1.24.56,1.62.38.38.87.56,1.47.56.75,0,1.43-.4,2.03-1.2.6-.8.9-1.83.9-3.08,0-1.15-.31-2.07-.94-2.74-.63-.68-1.37-1.01-2.22-1.01Z"/>
    <path d="M382.38,522.44c-.55,0-1.02.11-1.4.34s-.69.48-.94.75c-.25.28-.47.53-.64.75-.18.23-.37.34-.57.34-.35,0-.94-.26-1.77-.79s-1.92-.79-3.28-.79c-2.01,0-4.33.77-6.97,2.3-2.64,1.53-5.21,3.88-7.73,7.05-2.66,3.32-4.63,6.53-5.92,9.65-1.28,3.12-1.92,6.05-1.92,8.82s.55,4.7,1.66,6.1,2.59,2.11,4.45,2.11c2.51,0,5.2-1.63,8.07-4.9,2.86-3.27,6.18-8.14,9.95-14.62l-2.26,8.37c-.4,1.46-.77,2.85-1.09,4.18-.33,1.33-.49,2.63-.49,3.88,0,2.16.8,3.24,2.41,3.24,2.11,0,4.55-2.01,7.31-6.03,1.61-2.26,2.41-3.92,2.41-4.97,0-.35-.13-.53-.38-.53-.4,0-.7.25-.9.75-.2.5-.63,1.21-1.28,2.11-1.51,2.11-2.69,3.17-3.54,3.17-.55,0-.83-.53-.83-1.58,0-.2.05-.63.15-1.28.1-.65.3-1.51.6-2.56l6.33-22.99c.25-.75.38-1.31.38-1.66,0-.55-.13-.89-.38-1.02-.25-.12-.73-.19-1.43-.19ZM370.1,545.13c-2.26,3.32-4.23,5.82-5.92,7.5s-3.23,2.53-4.63,2.53c-1.01,0-1.83-.38-2.49-1.13s-.98-1.86-.98-3.32c0-1.71.43-3.81,1.28-6.29.85-2.49,2.16-5.26,3.92-8.33,2.26-3.92,4.53-6.82,6.82-8.7,2.29-1.88,4.16-2.83,5.61-2.83,1.36,0,2.41.4,3.16,1.21.75.8,1.13,1.93,1.13,3.39,0,2.91-2.64,8.24-7.91,15.98Z"/>
    <path d="M428.96,520.72c0-3.35-.85-5.89-2.56-7.64-1.71-1.75-4.2-2.62-7.46-2.62-1.36,0-2.76.05-4.22.15-1.46.1-2.99.15-4.6.15-1.86,0-3.29-.06-4.29-.19-1.01-.12-1.63-.19-1.88-.19-.95,0-1.43.28-1.43.82,0,.45.18.71.53.79s.75.15,1.21.23.85.29,1.21.64c.35.35.53,1,.53,1.95,0,.4-.03.86-.08,1.39-.05.53-.15,1.09-.3,1.69l-8.37,34.52c-.3,1.25-.74,2.09-1.32,2.51s-1.17.71-1.77.86c-.6.15-1.12.25-1.54.3-.43.05-.64.32-.64.82,0,.55.3.82.9.82.5,0,1.28-.08,2.34-.23s2.39-.23,3.99-.23c1.91,0,3.39.08,4.45.23s1.76.23,2.11.23c.5,0,.88-.09,1.13-.26.25-.18.38-.39.38-.64,0-.35-.1-.59-.3-.72-.2-.12-.45-.21-.75-.26-.3-.05-.65-.08-1.06-.08-.35,0-.7-.05-1.06-.15-1.11-.35-1.66-1.07-1.66-2.17,0-.5.05-1.02.15-1.57.1-.55.23-1.15.38-1.79l3.17-13.31c.5.05.98.08,1.43.08h1.43c3.21,0,6.07-.39,8.55-1.16,2.49-.78,4.59-1.87,6.29-3.3s2.99-3.12,3.84-5.1c.85-1.97,1.28-4.16,1.28-6.56ZM423.12,525.7c-.73,1.77-1.75,3.36-3.05,4.75s-2.88,2.51-4.71,3.33c-1.83.82-3.86,1.24-6.07,1.24-.4,0-.84-.01-1.32-.04-.48-.02-.99-.06-1.54-.11l4.97-22.31c.6-.1,1.17-.17,1.7-.22.53-.05,1.02-.08,1.47-.08,3.17,0,5.56.56,7.2,1.68,1.63,1.12,2.45,3.18,2.45,6.18,0,1.95-.37,3.81-1.09,5.58Z"/>
    <path d="M449,531.62c.75,0,1.43-.4,2.03-1.2.6-.8.9-1.83.9-3.08,0-1.15-.31-2.07-.94-2.74-.63-.68-1.37-1.01-2.22-1.01-2.11,0-4.31,1.73-6.59,5.19-2.29,3.46-4.86,8.7-7.73,15.72l2.86-10.9c.45-1.75.75-3.26.9-4.51.15-1.25.23-2.08.23-2.48,0-1.15-.23-2.02-.68-2.59-.45-.58-1.06-.87-1.81-.87-1.86,0-4.15,1.61-6.86,4.82-1.16,1.36-1.99,2.49-2.49,3.39-.5.9-.75,1.46-.75,1.66,0,.5.17.75.53.75.2,0,.54-.34,1.02-1.02s1.01-1.43,1.58-2.26,1.19-1.59,1.85-2.3c.65-.7,1.31-1.06,1.96-1.06.75,0,1.13.48,1.13,1.43,0,.7-.1,1.55-.3,2.56-.2,1-.48,2.18-.83,3.53l-5.58,21.2c-.15.55-.23.88-.23.98,0,.6.6.9,1.81.9.65,0,1.13-.06,1.43-.19.3-.13.56-.41.79-.87s.48-1.1.75-1.95c.28-.85.69-2.01,1.24-3.46,3.06-7.92,5.74-13.84,8.03-17.75,2.29-3.91,3.86-5.87,4.71-5.87.3,0,.58.16.83.49.25.33.38.76.38,1.32,0,.7.19,1.24.56,1.62.38.38.87.56,1.47.56Z"/>
    <path d="M470.62,552.77c1.67-1.93,3.03-4.18,4.09-6.75,1.05-2.56,1.57-5.27,1.57-8.14,0-2.26-.3-4.3-.9-6.1-.6-1.81-1.41-3.35-2.44-4.64-1.02-1.28-2.25-2.26-3.67-2.94s-2.96-1.02-4.61-1.02c-2.05,0-4.11.54-6.18,1.62-2.07,1.08-3.96,2.56-5.66,4.45-1.7,1.88-3.07,4.14-4.12,6.78-1.05,2.64-1.57,5.49-1.57,8.55,0,2.16.3,4.13.9,5.92.6,1.78,1.41,3.3,2.44,4.56,1.02,1.26,2.24,2.22,3.64,2.9,1.4.68,2.9,1.02,4.5,1.02,2.1,0,4.21-.55,6.34-1.66s4.02-2.62,5.7-4.56ZM463.18,555.4c-1.59,1.19-3.16,1.78-4.73,1.78-2.07,0-3.72-.88-4.95-2.65-1.24-1.77-1.85-4.29-1.85-7.57,0-2.52.38-5.12,1.13-7.8.76-2.68,1.87-5.25,3.33-7.72,1.26-2.12,2.7-3.72,4.31-4.81,1.61-1.09,3.18-1.63,4.69-1.63,2.12,0,3.76.81,4.92,2.42,1.16,1.62,1.74,3.99,1.74,7.12s-.4,6.07-1.21,8.82c-.81,2.75-1.84,5.15-3.1,7.19-1.26,2.04-2.69,3.66-4.27,4.85Z"/>
    <path d="M489.17,525.98c0-.95-.25-1.68-.75-2.19-.5-.5-1.13-.75-1.88-.75-1.06,0-2.12.4-3.2,1.21-1.08.8-2.27,2.01-3.58,3.62-.9,1.16-1.57,2.11-2,2.86s-.64,1.23-.64,1.43c0,.45.15.68.45.68.2,0,.51-.31.94-.94.43-.63.9-1.31,1.43-2.03.53-.73,1.07-1.41,1.62-2.04.55-.63,1.08-.94,1.58-.94.7,0,1.06.28,1.06.83,0,.15-.04.5-.11,1.06-.08.55-.24,1.26-.49,2.11l-5.43,20.05c-1.06,3.82-1.95,7.11-2.68,9.87-.73,2.76-1.41,5.05-2.04,6.86s-1.24,3.14-1.85,3.99c-.6.85-1.28,1.28-2.03,1.28-.55,0-.99-.25-1.32-.75-.33-.5-.65-1.06-.98-1.66-.33-.6-.68-1.16-1.05-1.66-.38-.5-.87-.75-1.47-.75-.55,0-1.06.23-1.51.68s-.68,1.08-.68,1.88c0,1.16.52,2.19,1.55,3.09,1.03.9,2.32,1.36,3.88,1.36,1.11,0,2.26-.34,3.47-1.02,1.21-.68,2.37-1.72,3.51-3.13,1.13-1.41,2.21-3.15,3.24-5.24,1.03-2.08,1.92-4.56,2.68-7.42l7.54-28.19c.25-.85.44-1.62.56-2.3s.19-1.29.19-1.85Z"/>
    <path d="M489.7,517.92c.9,0,1.7-.53,2.37-1.58s1.02-2.31,1.02-3.77c0-.8-.2-1.46-.6-1.96-.4-.5-.93-.75-1.58-.75-.9,0-1.71.52-2.41,1.55-.7,1.03-1.06,2.15-1.06,3.35,0,1.01.2,1.78.6,2.34.4.55.95.83,1.66.83Z"/>
    <path d="M509.67,539.32c3.52-2.21,5.27-5.17,5.27-8.89,0-2.21-.71-4.02-2.12-5.43-1.42-1.41-3.26-2.11-5.53-2.11-1.92,0-3.93.58-6.03,1.73-2.1,1.16-4.11,2.91-6.03,5.28-2.07,2.51-3.64,5.16-4.7,7.95-1.06,2.79-1.59,5.56-1.59,8.33,0,1.96.25,3.74.75,5.35.5,1.61,1.19,2.98,2.07,4.11.88,1.13,1.91,2.01,3.09,2.64,1.18.63,2.45.94,3.81.94,3.52,0,6.91-2.11,10.17-6.33.8-1.06,1.39-1.96,1.77-2.71.38-.75.57-1.33.57-1.73,0-.5-.15-.75-.45-.75-.45,0-.78.3-.98.9-.2.6-.68,1.36-1.43,2.26-2.56,3.07-5.2,4.6-7.91,4.6-1.96,0-3.56-.75-4.79-2.26-1.23-1.51-1.85-3.67-1.85-6.48,0-.55.08-1.63.23-3.24,6.93-.55,12.16-1.93,15.67-4.14ZM496.59,534.27c.98-2.16,2.02-3.98,3.13-5.46,1.11-1.48,2.25-2.6,3.43-3.35s2.35-1.13,3.5-1.13,2.07.43,2.75,1.28c.68.85,1.02,1.99,1.02,3.39,0,3.47-1.4,6.38-4.18,8.74-2.79,2.36-6.82,3.67-12.1,3.92.65-2.76,1.47-5.22,2.45-7.39Z"/>
    <path d="M522.89,530.69c1.23-1.78,2.54-3.18,3.92-4.18,1.38-1,2.63-1.51,3.73-1.51.55,0,1.04.23,1.47.68s.88.94,1.36,1.47c.48.53,1.01,1.02,1.58,1.47s1.29.68,2.15.68c.7,0,1.26-.23,1.66-.68s.6-.93.6-1.43c0-1.36-.58-2.4-1.73-3.13-1.16-.73-2.74-1.09-4.75-1.09s-4.13.57-6.52,1.7-4.63,2.98-6.75,5.54c-2.16,2.31-3.79,4.86-4.9,7.65-1.11,2.79-1.66,5.56-1.66,8.33,0,1.96.26,3.74.79,5.35.53,1.61,1.26,2.98,2.19,4.11.93,1.13,2.01,2.01,3.24,2.64,1.23.63,2.57.94,4.03.94,1.76,0,3.45-.47,5.09-1.39,1.63-.93,3.25-2.32,4.86-4.18,1.11-1.26,1.92-2.34,2.45-3.24.53-.9.79-1.56.79-1.96,0-.5-.18-.75-.53-.75-.45,0-.79.3-1.02.9s-.74,1.36-1.54,2.26c-2.71,3.01-5.25,4.52-7.61,4.52s-4.11-.85-5.39-2.56c-1.28-1.71-1.92-4.17-1.92-7.39,0-3.01.43-5.78,1.28-8.29.85-2.51,1.9-4.66,3.13-6.44Z"/>
    <path d="M549.39,546.86c-.35,0-.62.29-.79.87-.18.58-.62,1.39-1.32,2.45-1.71,2.61-2.91,3.92-3.62,3.92-.25,0-.49-.15-.72-.45s-.34-.7-.34-1.21c0-.75.23-2.02.68-3.81.45-1.78,1.06-4.11,1.81-6.97l4.07-15.3h5.5c.6,0,.9-.45.9-1.36,0-.3-.18-.45-.53-.45h-5.5l1.81-6.33c.25-.9.38-1.46.38-1.66,0-.5-.5-.75-1.51-.75s-1.65.1-2.07.3c-.43.2-.74.65-.94,1.36l-1.88,7.08h-4.75c-.6,0-.9.45-.9,1.36,0,.1.05.2.15.3.1.1.23.15.38.15h4.6l-4.07,14.47c-1.91,6.73-2.86,11.33-2.86,13.79,0,1.21.24,2.15.72,2.83s1.09,1.02,1.85,1.02c.85,0,1.91-.5,3.16-1.51,1.26-1,2.54-2.49,3.84-4.45,1.71-2.51,2.56-4.14,2.56-4.9,0-.5-.2-.75-.6-.75Z"/>
    <path d="M569.51,513.32c-.75-.95-1.65-1.71-2.68-2.26-1.03-.55-2.1-.83-3.2-.83-2.21,0-3.88.62-5.01,1.85-1.13,1.23-1.7,2.9-1.7,5.01,0,.4.11.73.34.98.23.25.54.38.94.38.45,0,.92-.31,1.4-.94.48-.63,1.02-1.32,1.62-2.07s1.27-1.44,2-2.07c.73-.63,1.55-.94,2.45-.94,1.01,0,1.9.53,2.68,1.58.78,1.06,1.17,2.41,1.17,4.07,0,1.91-.7,3.78-2.11,5.61-1.41,1.83-3.52,3.73-6.33,5.69-.7.5-1.35.93-1.92,1.28-.58.35-1.08.74-1.51,1.17-.43.43-.79.94-1.09,1.55s-.55,1.43-.75,2.49l-1.51,8.06c-.05.25-.08.45-.08.6v.38c0,.65.17.98.53.98.4,0,.66-.31.79-.94.13-.63.3-1.39.53-2.3s.58-1.88,1.06-2.94c.48-1.06,1.24-2.04,2.3-2.94,1.06-.85,2.34-1.77,3.84-2.75s2.99-2.27,4.45-3.88c2.86-3.06,4.3-6.26,4.3-9.57,0-1.41-.23-2.72-.68-3.96-.45-1.23-1.06-2.32-1.81-3.28Z"/>
    <path d="M553.23,551.53c-.8,0-1.5.39-2.07,1.17-.58.78-.87,1.75-.87,2.9,0,1.91.7,2.86,2.11,2.86.85,0,1.56-.41,2.11-1.24.55-.83.83-1.74.83-2.75,0-1.96-.71-2.94-2.11-2.94Z"/>
    <path d="M617.21,536.95c.2-.12.3-.39.3-.79,0-.5-.3-.75-.9-.75-.45,0-1.16.08-2.11.23s-2.16.23-3.62.23-2.64-.05-3.69-.15c-1.06-.1-1.93-.15-2.64-.15-.9,0-1.36.3-1.36.9,0,.35.1.59.3.72.2.13.45.2.75.23.3.03.63.04.98.04s.7.05,1.06.15c1.06.3,1.58,1.11,1.58,2.41,0,.15-.08.7-.23,1.66l-1.13,5.73c-.15.7-.37,1.71-.64,3.01-.28,1.31-.69,2.86-1.24,4.67-.7.7-1.6,1.21-2.68,1.51-1.08.3-2.37.45-3.88.45-3.82,0-6.83-1.37-9.04-4.11-2.21-2.74-3.32-6.57-3.32-11.49,0-4.57.93-8.93,2.79-13.08s4.55-7.8,8.06-10.96c2.36-2.11,4.87-3.69,7.54-4.75,2.66-1.06,5.07-1.58,7.24-1.58,1.46,0,2.35.35,2.68,1.06.33.7.49,1.99.49,3.84,0,.85-.03,1.6-.08,2.22-.05.63-.08,1.17-.08,1.62,0,1.06.3,1.58.9,1.58.55,0,.9-.33,1.06-.98l2.19-9.72c.05-.1.08-.28.08-.53,0-1-1.26-1.51-3.77-1.51-3.52,0-7.16.62-10.93,1.85-3.77,1.23-7.29,3.05-10.55,5.46-4.42,3.32-7.76,7.07-10.02,11.27-2.26,4.2-3.39,8.76-3.39,13.68,0,2.71.44,5.2,1.32,7.46s2.11,4.2,3.69,5.8c1.58,1.61,3.47,2.85,5.65,3.73s4.59,1.32,7.2,1.32c4.42,0,8.39-1.08,11.91-3.24.15-1.76.35-3.24.6-4.45.25-1.21.45-2.21.6-3.01l.83-4.22c.35-1.71.72-3.06,1.09-4.07.38-1,.87-1.76,1.47-2.26.35-.25.72-.41,1.09-.49s.73-.15,1.05-.23.59-.17.79-.3Z"/>
    <path d="M636.43,539.32c3.52-2.21,5.27-5.17,5.27-8.89,0-2.21-.71-4.02-2.12-5.43-1.42-1.41-3.26-2.11-5.53-2.11-1.92,0-3.93.58-6.03,1.73-2.1,1.16-4.11,2.91-6.03,5.28-2.07,2.51-3.64,5.16-4.7,7.95-1.06,2.79-1.59,5.56-1.59,8.33,0,1.96.25,3.74.75,5.35.5,1.61,1.19,2.98,2.07,4.11.88,1.13,1.91,2.01,3.09,2.64,1.18.63,2.45.94,3.81.94,3.52,0,6.91-2.11,10.17-6.33.8-1.06,1.39-1.96,1.77-2.71.38-.75.57-1.33.57-1.73,0-.5-.15-.75-.45-.75-.45,0-.78.3-.98.9-.2.6-.68,1.36-1.43,2.26-2.56,3.07-5.2,4.6-7.91,4.6-1.96,0-3.56-.75-4.79-2.26-1.23-1.51-1.85-3.67-1.85-6.48,0-.55.08-1.63.23-3.24,6.93-.55,12.16-1.93,15.67-4.14ZM623.35,534.27c.98-2.16,2.02-3.98,3.13-5.46,1.11-1.48,2.25-2.6,3.43-3.35s2.35-1.13,3.5-1.13,2.07.43,2.75,1.28c.68.85,1.02,1.99,1.02,3.39,0,3.47-1.4,6.38-4.18,8.74-2.79,2.36-6.82,3.67-12.1,3.92.65-2.76,1.47-5.22,2.45-7.39Z"/>
    <path d="M657.3,524.55h-5.5l1.81-6.33c.25-.9.38-1.46.38-1.66,0-.5-.5-.75-1.51-.75s-1.65.1-2.07.3c-.43.2-.74.65-.94,1.36l-1.88,7.08h-4.75c-.6,0-.9.45-.9,1.36,0,.1.05.2.15.3.1.1.23.15.38.15h4.6l-4.07,14.47c-1.91,6.73-2.86,11.33-2.86,13.79,0,1.21.24,2.15.72,2.83s1.09,1.02,1.85,1.02c.85,0,1.91-.5,3.16-1.51,1.26-1,2.54-2.49,3.84-4.45,1.71-2.51,2.56-4.14,2.56-4.9,0-.5-.2-.75-.6-.75-.35,0-.62.29-.79.87-.18.58-.62,1.39-1.32,2.45-1.71,2.61-2.91,3.92-3.62,3.92-.25,0-.49-.15-.72-.45s-.34-.7-.34-1.21c0-.75.23-2.02.68-3.81.45-1.78,1.06-4.11,1.81-6.97l4.07-15.3h5.5c.6,0,.9-.45.9-1.36,0-.3-.18-.45-.53-.45Z"/>
    <path d="M681.11,516.34c.7-1.06,1.06-2.31,1.06-3.77,0-.8-.2-1.46-.6-1.96-.4-.5-.93-.75-1.58-.75-.9,0-1.72.52-2.45,1.55-.73,1.03-1.09,2.15-1.09,3.35,0,1.01.2,1.78.6,2.34.4.55.95.83,1.66.83.9,0,1.71-.53,2.41-1.58Z"/>
    <path d="M677.95,547.31c-.2,0-.44.31-.72.94-.28.63-.82,1.62-1.62,2.98-1.46,2.56-2.81,3.84-4.07,3.84-.7,0-1.06-.53-1.06-1.58,0-.45.23-1.43.68-2.94l5.35-16.73c.5-1.51.93-2.89,1.28-4.14.35-1.26.53-2.41.53-3.47s-.25-1.78-.75-2.34c-.5-.55-1.18-.83-2.04-.83-1.96,0-4.22,1.61-6.78,4.82-.9,1.16-1.56,2.11-1.96,2.86-.4.75-.6,1.23-.6,1.43,0,.45.13.68.38.68.2,0,.51-.31.94-.94.43-.63.9-1.33,1.43-2.11.53-.78,1.09-1.48,1.7-2.11.6-.63,1.21-.94,1.81-.94.45,0,.74.13.87.38.12.25.19.65.19,1.21,0,.7-.15,1.55-.45,2.53-.3.98-.68,2.15-1.13,3.5l-3.09,9.04c-.96,2.71-1.71,5.04-2.26,6.97-.55,1.93-.83,3.55-.83,4.86,0,2.51,1,3.77,3.01,3.77,1,0,2.08-.44,3.24-1.32,1.15-.88,2.31-2.2,3.47-3.96,2.01-3.06,3.01-5.02,3.01-5.88,0-.35-.18-.53-.53-.53Z"/>
    <path d="M712.62,546.41c-.25,0-.51.29-.79.87-.28.58-.84,1.5-1.7,2.75-1.01,1.51-1.9,2.65-2.68,3.43-.78.78-1.55,1.17-2.3,1.17s-1.13-.55-1.13-1.66c0-.4.13-.98.38-1.73l5.88-17.41c.95-2.81,1.43-4.97,1.43-6.48,0-1.31-.4-2.34-1.21-3.09-.8-.75-1.94-1.13-3.39-1.13-2.51,0-5.25,1.47-8.21,4.41-2.97,2.94-6.13,7.4-9.5,13.38l2.04-7.39c.55-1.91.9-3.48,1.06-4.71.15-1.23.23-2.02.23-2.37,0-2.36-.86-3.54-2.56-3.54-2.01,0-4.47,1.73-7.39,5.2-1.16,1.31-1.97,2.41-2.45,3.32-.48.9-.72,1.43-.72,1.58,0,.45.17.68.53.68.25,0,.61-.35,1.09-1.06.48-.7,1.02-1.47,1.62-2.3s1.25-1.59,1.96-2.3c.7-.7,1.41-1.05,2.11-1.05s1.06.48,1.06,1.43c0,.9-.2,2.19-.6,3.84-.4,1.66-.95,3.72-1.66,6.18l-5.2,17.48c-.2.6-.3.98-.3,1.13s.06.3.19.45.26.23.42.23h3.24c.45,0,.8-.31,1.05-.94.25-.63.55-1.54.9-2.75s.8-2.68,1.36-4.41c.55-1.73,1.36-3.73,2.41-5.99,1.26-2.71,2.61-5.16,4.07-7.35,1.46-2.19,2.89-4.04,4.3-5.58,1.41-1.53,2.69-2.71,3.84-3.54,1.15-.83,2.08-1.24,2.79-1.24,1.46,0,2.19.8,2.19,2.41,0,.3-.05.75-.15,1.36-.1.6-.3,1.33-.6,2.19l-3.09,9.04c-1.26,3.62-2.17,6.62-2.75,9.01-.58,2.39-.87,4.16-.87,5.31,0,2.31.9,3.47,2.71,3.47,1,0,2.18-.47,3.54-1.39,1.36-.93,2.69-2.35,3.99-4.26,1.15-1.66,2-3,2.52-4.03.53-1.03.79-1.67.79-1.92,0-.45-.15-.68-.45-.68Z"/>
    <path d="M733.83,530.69c1.23-1.78,2.54-3.18,3.92-4.18,1.38-1,2.63-1.51,3.73-1.51.55,0,1.04.23,1.47.68s.88.94,1.36,1.47c.48.53,1.01,1.02,1.58,1.47s1.29.68,2.15.68c.7,0,1.26-.23,1.66-.68s.6-.93.6-1.43c0-1.36-.58-2.4-1.73-3.13-1.16-.73-2.74-1.09-4.75-1.09s-4.13.57-6.52,1.7-4.63,2.98-6.75,5.54c-2.16,2.31-3.79,4.86-4.9,7.65-1.11,2.79-1.66,5.56-1.66,8.33,0,1.96.26,3.74.79,5.35.53,1.61,1.26,2.98,2.19,4.11.93,1.13,2.01,2.01,3.24,2.64,1.23.63,2.57.94,4.03.94,1.76,0,3.45-.47,5.09-1.39,1.63-.93,3.25-2.32,4.86-4.18,1.11-1.26,1.92-2.34,2.45-3.24.53-.9.79-1.56.79-1.96,0-.5-.18-.75-.53-.75-.45,0-.79.3-1.02.9s-.74,1.36-1.54,2.26c-2.71,3.01-5.25,4.52-7.61,4.52s-4.11-.85-5.39-2.56c-1.28-1.71-1.92-4.17-1.92-7.39,0-3.01.43-5.78,1.28-8.29.85-2.51,1.9-4.66,3.13-6.44Z"/>
    <path d="M774.01,527.15c-1.02-1.28-2.25-2.26-3.67-2.94s-2.96-1.02-4.61-1.02c-2.05,0-4.11.54-6.18,1.62-2.07,1.08-3.96,2.56-5.66,4.45-1.7,1.88-3.07,4.14-4.12,6.78-1.05,2.64-1.57,5.49-1.57,8.55,0,2.16.3,4.13.9,5.92.6,1.78,1.41,3.3,2.44,4.56,1.02,1.26,2.24,2.22,3.64,2.9,1.4.68,2.9,1.02,4.5,1.02,2.1,0,4.21-.55,6.34-1.66s4.02-2.62,5.7-4.56c1.67-1.93,3.03-4.18,4.09-6.75,1.05-2.56,1.57-5.27,1.57-8.14,0-2.26-.3-4.3-.9-6.1-.6-1.81-1.41-3.35-2.44-4.64ZM771.62,543.36c-.81,2.75-1.84,5.15-3.1,7.19-1.26,2.04-2.69,3.66-4.27,4.85-1.59,1.19-3.16,1.78-4.73,1.78-2.07,0-3.72-.88-4.95-2.65-1.24-1.77-1.85-4.29-1.85-7.57,0-2.52.38-5.12,1.13-7.8.76-2.68,1.87-5.25,3.33-7.72,1.26-2.12,2.7-3.72,4.31-4.81,1.61-1.09,3.18-1.63,4.69-1.63,2.12,0,3.76.81,4.92,2.42,1.16,1.62,1.74,3.99,1.74,7.12s-.4,6.07-1.21,8.82Z"/>
    <path d="M810.21,546.41c-.25,0-.51.29-.79.87-.28.58-.84,1.5-1.7,2.75-1.01,1.51-1.9,2.65-2.68,3.43-.78.78-1.55,1.17-2.3,1.17s-1.13-.55-1.13-1.66c0-.4.13-.98.38-1.73l5.88-17.41c.95-2.81,1.43-4.97,1.43-6.48,0-1.31-.4-2.34-1.21-3.09-.8-.75-1.94-1.13-3.39-1.13-2.51,0-5.25,1.47-8.21,4.41-2.97,2.94-6.13,7.4-9.5,13.38l2.04-7.39c.55-1.91.9-3.48,1.06-4.71.15-1.23.23-2.02.23-2.37,0-2.36-.86-3.54-2.56-3.54-2.01,0-4.47,1.73-7.39,5.2-1.16,1.31-1.97,2.41-2.45,3.32-.48.9-.72,1.43-.72,1.58,0,.45.17.68.53.68.25,0,.61-.35,1.09-1.06.48-.7,1.02-1.47,1.62-2.3s1.25-1.59,1.96-2.3c.7-.7,1.41-1.05,2.11-1.05s1.06.48,1.06,1.43c0,.9-.2,2.19-.6,3.84-.4,1.66-.95,3.72-1.66,6.18l-5.2,17.48c-.2.6-.3.98-.3,1.13s.06.3.19.45.26.23.42.23h3.24c.45,0,.8-.31,1.05-.94.25-.63.55-1.54.9-2.75s.8-2.68,1.36-4.41c.55-1.73,1.36-3.73,2.41-5.99,1.26-2.71,2.61-5.16,4.07-7.35,1.46-2.19,2.89-4.04,4.3-5.58,1.41-1.53,2.69-2.71,3.84-3.54,1.15-.83,2.08-1.24,2.79-1.24,1.46,0,2.19.8,2.19,2.41,0,.3-.05.75-.15,1.36-.1.6-.3,1.33-.6,2.19l-3.09,9.04c-1.26,3.62-2.17,6.62-2.75,9.01-.58,2.39-.87,4.16-.87,5.31,0,2.31.9,3.47,2.71,3.47,1,0,2.18-.47,3.54-1.39,1.36-.93,2.69-2.35,3.99-4.26,1.15-1.66,2-3,2.52-4.03.53-1.03.79-1.67.79-1.92,0-.45-.15-.68-.45-.68Z"/>
    <path d="M822.12,546.86c-.35,0-.62.29-.79.87-.18.58-.62,1.39-1.32,2.45-1.71,2.61-2.91,3.92-3.62,3.92-.25,0-.49-.15-.72-.45s-.34-.7-.34-1.21c0-.75.23-2.02.68-3.81.45-1.78,1.06-4.11,1.81-6.97l4.07-15.3h5.5c.6,0,.9-.45.9-1.36,0-.3-.18-.45-.53-.45h-5.5l1.81-6.33c.25-.9.38-1.46.38-1.66,0-.5-.5-.75-1.51-.75s-1.65.1-2.07.3c-.43.2-.74.65-.94,1.36l-1.88,7.08h-4.75c-.6,0-.9.45-.9,1.36,0,.1.05.2.15.3.1.1.23.15.38.15h4.6l-4.07,14.47c-1.91,6.73-2.86,11.33-2.86,13.79,0,1.21.24,2.15.72,2.83s1.09,1.02,1.85,1.02c.85,0,1.91-.5,3.16-1.51,1.26-1,2.54-2.49,3.84-4.45,1.71-2.51,2.56-4.14,2.56-4.9,0-.5-.2-.75-.6-.75Z"/>
    <path d="M854.97,547.69c-.4,0-.7.25-.9.75-.2.5-.63,1.21-1.28,2.11-1.51,2.11-2.69,3.17-3.54,3.17-.55,0-.83-.53-.83-1.58,0-.2.05-.63.15-1.28.1-.65.3-1.51.6-2.56l6.33-22.99c.25-.75.38-1.31.38-1.66,0-.55-.13-.89-.38-1.02-.25-.12-.73-.19-1.43-.19-.55,0-1.02.11-1.4.34s-.69.48-.94.75c-.25.28-.47.53-.64.75-.18.23-.37.34-.57.34-.35,0-.94-.26-1.77-.79s-1.92-.79-3.28-.79c-2.01,0-4.33.77-6.97,2.3-2.64,1.53-5.21,3.88-7.73,7.05-2.66,3.32-4.63,6.53-5.92,9.65-1.28,3.12-1.92,6.05-1.92,8.82s.55,4.7,1.66,6.1,2.59,2.11,4.45,2.11c2.51,0,5.2-1.63,8.07-4.9,2.86-3.27,6.18-8.14,9.95-14.62l-2.26,8.37c-.4,1.46-.77,2.85-1.09,4.18-.33,1.33-.49,2.63-.49,3.88,0,2.16.8,3.24,2.41,3.24,2.11,0,4.55-2.01,7.31-6.03,1.61-2.26,2.41-3.92,2.41-4.97,0-.35-.13-.53-.38-.53ZM841.79,545.13c-2.26,3.32-4.23,5.82-5.92,7.5s-3.23,2.53-4.63,2.53c-1.01,0-1.83-.38-2.49-1.13s-.98-1.86-.98-3.32c0-1.71.43-3.81,1.28-6.29.85-2.49,2.16-5.26,3.92-8.33,2.26-3.92,4.53-6.82,6.82-8.7,2.29-1.88,4.16-2.83,5.61-2.83,1.36,0,2.41.4,3.16,1.21.75.8,1.13,1.93,1.13,3.39,0,2.91-2.64,8.24-7.91,15.98Z"/>
    <path d="M865.34,530.69c1.23-1.78,2.54-3.18,3.92-4.18,1.38-1,2.63-1.51,3.73-1.51.55,0,1.04.23,1.47.68s.88.94,1.36,1.47c.48.53,1.01,1.02,1.58,1.47s1.29.68,2.15.68c.7,0,1.26-.23,1.66-.68s.6-.93.6-1.43c0-1.36-.58-2.4-1.73-3.13-1.16-.73-2.74-1.09-4.75-1.09s-4.13.57-6.52,1.7-4.63,2.98-6.75,5.54c-2.16,2.31-3.79,4.86-4.9,7.65-1.11,2.79-1.66,5.56-1.66,8.33,0,1.96.26,3.74.79,5.35.53,1.61,1.26,2.98,2.19,4.11.93,1.13,2.01,2.01,3.24,2.64,1.23.63,2.57.94,4.03.94,1.76,0,3.45-.47,5.09-1.39,1.63-.93,3.25-2.32,4.86-4.18,1.11-1.26,1.92-2.34,2.45-3.24.53-.9.79-1.56.79-1.96,0-.5-.18-.75-.53-.75-.45,0-.79.3-1.02.9s-.74,1.36-1.54,2.26c-2.71,3.01-5.25,4.52-7.61,4.52s-4.11-.85-5.39-2.56c-1.28-1.71-1.92-4.17-1.92-7.39,0-3.01.43-5.78,1.28-8.29.85-2.51,1.9-4.66,3.13-6.44Z"/>
    <path d="M897.48,524.55h-5.5l1.81-6.33c.25-.9.38-1.46.38-1.66,0-.5-.5-.75-1.51-.75s-1.65.1-2.07.3c-.43.2-.74.65-.94,1.36l-1.88,7.08h-4.75c-.6,0-.9.45-.9,1.36,0,.1.05.2.15.3.1.1.23.15.38.15h4.6l-4.07,14.47c-1.91,6.73-2.86,11.33-2.86,13.79,0,1.21.24,2.15.72,2.83s1.09,1.02,1.85,1.02c.85,0,1.91-.5,3.16-1.51,1.26-1,2.54-2.49,3.84-4.45,1.71-2.51,2.56-4.14,2.56-4.9,0-.5-.2-.75-.6-.75-.35,0-.62.29-.79.87-.18.58-.62,1.39-1.32,2.45-1.71,2.61-2.91,3.92-3.62,3.92-.25,0-.49-.15-.72-.45s-.34-.7-.34-1.21c0-.75.23-2.02.68-3.81.45-1.78,1.06-4.11,1.81-6.97l4.07-15.3h5.5c.6,0,.9-.45.9-1.36,0-.3-.18-.45-.53-.45Z"/>
    <path d="M944.5,522.97c-.55,0-1.04.26-1.47.79s-.64,1.29-.64,2.3c0,.6.09,1.18.26,1.73.18.55.38,1.11.6,1.66.23.55.44,1.12.64,1.7.2.58.3,1.24.3,2,0,1.71-.43,3.86-1.28,6.44-.85,2.59-2.19,5.34-3.99,8.25-1.71,2.71-3.37,4.72-4.97,6.03-1.61,1.31-2.91,1.96-3.92,1.96-1.76,0-2.64-1.15-2.64-3.47,0-1.66.26-3.7.79-6.14.53-2.44,1.27-5.31,2.22-8.63l3.39-11.91c.05-.15.08-.38.08-.68,0-.65-.53-.98-1.58-.98-1.36,0-2.16.15-2.41.45s-.45.73-.6,1.28l-1.88,6.56c-1.16,3.97-2.37,7.41-3.66,10.32-1.28,2.91-2.55,5.34-3.81,7.27-1.26,1.93-2.47,3.38-3.65,4.33-1.18.95-2.25,1.43-3.2,1.43-.75,0-1.37-.28-1.85-.83-.48-.55-.72-1.33-.72-2.34,0-.8.16-1.8.49-2.98.33-1.18.77-2.6,1.32-4.26l3.77-12.06c.5-1.56.89-2.9,1.17-4.03s.42-2.05.42-2.75c0-1.06-.23-1.86-.68-2.41-.45-.55-1.03-.83-1.73-.83-1.16,0-2.29.47-3.39,1.39-1.11.93-2.34,2.35-3.69,4.26-1.56,2.16-2.34,3.47-2.34,3.92,0,.4.13.6.38.6.35,0,.75-.31,1.21-.94.45-.63.92-1.32,1.39-2.07.48-.75.98-1.44,1.51-2.07.53-.63,1.07-.94,1.62-.94s.83.38.83,1.13c0,.15-.04.5-.11,1.06-.08.55-.24,1.23-.49,2.04l-4.82,15.37c-.4,1.31-.69,2.51-.87,3.62-.18,1.11-.26,2.06-.26,2.86,0,1.76.4,3.09,1.21,3.99.8.9,1.83,1.36,3.09,1.36,4.52,0,9.19-4.77,14.02-14.32-.4,2.11-.72,3.92-.94,5.43-.23,1.51-.34,2.76-.34,3.77,0,3.72,1.38,5.58,4.15,5.58,1.61,0,3.58-.88,5.91-2.64,2.34-1.76,4.63-4.47,6.9-8.14,2.36-3.77,4.08-7.36,5.16-10.78,1.08-3.42,1.62-6.46,1.62-9.12,0-3.72-.83-5.58-2.49-5.58Z"/>
    <path d="M962.14,516.34c.7-1.06,1.06-2.31,1.06-3.77,0-.8-.2-1.46-.6-1.96-.4-.5-.93-.75-1.58-.75-.9,0-1.72.52-2.45,1.55-.73,1.03-1.09,2.15-1.09,3.35,0,1.01.2,1.78.6,2.34.4.55.95.83,1.66.83.9,0,1.71-.53,2.41-1.58Z"/>
    <path d="M958.97,547.31c-.2,0-.44.31-.72.94-.28.63-.82,1.62-1.62,2.98-1.46,2.56-2.81,3.84-4.07,3.84-.7,0-1.06-.53-1.06-1.58,0-.45.23-1.43.68-2.94l5.35-16.73c.5-1.51.93-2.89,1.28-4.14.35-1.26.53-2.41.53-3.47s-.25-1.78-.75-2.34c-.5-.55-1.18-.83-2.04-.83-1.96,0-4.22,1.61-6.78,4.82-.9,1.16-1.56,2.11-1.96,2.86-.4.75-.6,1.23-.6,1.43,0,.45.13.68.38.68.2,0,.51-.31.94-.94.43-.63.9-1.33,1.43-2.11.53-.78,1.09-1.48,1.7-2.11.6-.63,1.21-.94,1.81-.94.45,0,.74.13.87.38.12.25.19.65.19,1.21,0,.7-.15,1.55-.45,2.53-.3.98-.68,2.15-1.13,3.5l-3.09,9.04c-.96,2.71-1.71,5.04-2.26,6.97-.55,1.93-.83,3.55-.83,4.86,0,2.51,1,3.77,3.01,3.77,1,0,2.08-.44,3.24-1.32,1.15-.88,2.31-2.2,3.47-3.96,2.01-3.06,3.01-5.02,3.01-5.88,0-.35-.18-.53-.53-.53Z"/>
    <path d="M972.46,546.86c-.35,0-.62.29-.79.87-.18.58-.62,1.39-1.32,2.45-1.71,2.61-2.91,3.92-3.62,3.92-.25,0-.49-.15-.72-.45s-.34-.7-.34-1.21c0-.75.23-2.02.68-3.81.45-1.78,1.06-4.11,1.81-6.97l4.07-15.3h5.5c.6,0,.9-.45.9-1.36,0-.3-.18-.45-.53-.45h-5.5l1.81-6.33c.25-.9.38-1.46.38-1.66,0-.5-.5-.75-1.51-.75s-1.65.1-2.07.3c-.43.2-.74.65-.94,1.36l-1.88,7.08h-4.75c-.6,0-.9.45-.9,1.36,0,.1.05.2.15.3.1.1.23.15.38.15h4.6l-4.07,14.47c-1.91,6.73-2.86,11.33-2.86,13.79,0,1.21.24,2.15.72,2.83s1.09,1.02,1.85,1.02c.85,0,1.91-.5,3.16-1.51,1.26-1,2.54-2.49,3.84-4.45,1.71-2.51,2.56-4.14,2.56-4.9,0-.5-.2-.75-.6-.75Z"/>
    <path d="M996.95,523.19c-2.41,0-4.86,1.42-7.35,4.26-2.49,2.84-5.21,7.15-8.18,12.93l8.82-34.06c.05-.25.09-.44.11-.57.02-.13.04-.21.04-.26,0-.4-.13-.6-.38-.6-.45,0-.98.25-1.58.75-.6.5-1.58.88-2.94,1.13-.65.15-1.26.24-1.81.26-.55.03-1.02.06-1.39.11-.38.05-.68.14-.9.26-.23.13-.34.34-.34.64,0,.5.4.75,1.21.75.15,0,.29-.01.42-.04.12-.02.26-.04.41-.04.55,0,.98.14,1.28.41.3.28.45.59.45.94,0,.6-.18,1.58-.53,2.94l-10.93,42.5c-.15.6-.23,1.03-.23,1.28,0,.55.11.89.34,1.02s.62.19,1.17.19c1.15,0,1.86-.23,2.11-.68.1-.15.41-1.08.94-2.79.53-1.71,1.44-4.3,2.75-7.76,2.51-6.48,5.11-11.45,7.8-14.92,2.69-3.47,5.04-5.2,7.05-5.2,1,0,1.82.45,2.45,1.35.63.9.94,2.22.94,3.97,0,.85-.08,1.91-.23,3.19-.15,1.27-.38,2.68-.68,4.2-.3,1.52-.7,3.12-1.2,4.8-.5,1.67-1.11,3.36-1.81,5.06-.96,2.35-1.82,4.1-2.6,5.25-.78,1.15-1.67,1.72-2.68,1.72-.55,0-.99-.17-1.32-.52-.33-.35-.62-.74-.87-1.16-.25-.43-.53-.81-.83-1.16-.3-.35-.68-.52-1.13-.52-.55,0-1.03.23-1.43.68-.4.45-.6,1.05-.6,1.8,0,1.05.35,1.89,1.06,2.52.7.63,1.68.94,2.94.94,1.51,0,3.23-.74,5.16-2.22,1.93-1.48,3.78-3.64,5.54-6.5,1.66-2.75,2.94-5.68,3.84-8.78s1.36-6,1.36-8.7c0-3-.58-5.31-1.73-6.94-1.16-1.62-2.66-2.44-4.52-2.44Z"/>
    <path d="M1060.11,540.37l-3.99-5.15c-.75-.96-1.33-1.85-1.73-2.69-.4-.83-.6-1.7-.6-2.61,0-1.41.44-2.59,1.32-3.52.88-.93,1.9-1.4,3.05-1.4,1.06,0,2,.29,2.83.87.83.58,1.58,1.22,2.26,1.92.68.7,1.27,1.35,1.77,1.92.5.58.95.87,1.36.87.95,0,1.43-1.21,1.43-3.62,0-.55-.23-1.06-.68-1.53-.45-.47-1.06-.87-1.81-1.19s-1.6-.58-2.52-.77c-.93-.19-1.87-.28-2.83-.28-1.31,0-2.54.28-3.69.83-1.16.55-2.17,1.29-3.05,2.22-.88.93-1.58,2-2.11,3.2s-.79,2.44-.79,3.69.33,2.61.98,3.92c.65,1.31,1.58,2.69,2.79,4.15l3.17,3.84c.85,1.05,1.52,2.07,2,3.05s.72,2.05.72,3.2c0,1.71-.5,3.15-1.51,4.33-1.01,1.18-2.21,1.77-3.62,1.77-1.16,0-2.24-.35-3.24-1.06-1.01-.7-1.91-1.78-2.71-3.24-.25-.45-.45-.89-.6-1.32-.15-.43-.31-.83-.49-1.21-.18-.38-.36-.68-.56-.9-.02-.03-.05-.03-.08-.06.15-.3.23-.5.23-.58,0-.2-.05-.38-.15-.53s-.2-.23-.3-.23c-.3,0-.69.35-1.17,1.06-.48.7-1.02,1.47-1.62,2.3s-1.24,1.6-1.92,2.3c-.68.7-1.4,1.06-2.15,1.06-.7,0-1.06-.53-1.06-1.58,0-1.61.75-4.9,2.26-9.87l5.43-18.09c.1-.4.15-.65.15-.75,0-.15-.09-.3-.26-.45-.18-.15-.37-.23-.56-.23h-2.94c-.45,0-.8.31-1.06.94-.25.63-.55,1.55-.9,2.75-.35,1.21-.83,2.7-1.43,4.48-.6,1.78-1.43,3.83-2.47,6.14-1.3,2.71-2.67,5.16-4.11,7.35-1.45,2.19-2.85,4.04-4.22,5.58-1.37,1.53-2.64,2.71-3.81,3.54-1.17.83-2.08,1.24-2.73,1.24-1.45,0-2.17-.8-2.17-2.41,0-.6.28-1.78.83-3.54l3.09-9.04c2.36-6.88,3.54-11.73,3.54-14.55,0-1.06-.24-1.87-.72-2.45-.48-.58-1.14-.87-2-.87-2.21,0-4.67,1.83-7.39,5.5-1.56,2.16-2.34,3.59-2.34,4.3,0,.4.17.6.53.6.25,0,.58-.33.98-.98.4-.65.87-1.37,1.39-2.15.53-.78,1.13-1.49,1.81-2.15.68-.65,1.39-.98,2.15-.98.7,0,1.06.55,1.06,1.66,0,.35-.13.9-.38,1.66l-5.88,17.48c-.96,2.81-1.43,4.97-1.43,6.48,0,1.26.4,2.27,1.21,3.05.8.78,1.93,1.17,3.39,1.17,2.51,0,5.25-1.47,8.21-4.41,2.97-2.94,6.13-7.4,9.5-13.38l-1.96,7.31c-.5,1.86-.84,3.39-1.02,4.6s-.26,2.06-.26,2.56c0,2.36.83,3.54,2.48,3.54,1.96,0,4.38-1.71,7.24-5.12.23-.27.44-.53.64-.78-.02.39-.04.79-.04,1.24,0,.5.26,1.03.79,1.58.53.55,1.22,1.06,2.07,1.51s1.81.82,2.86,1.09c1.06.28,2.11.41,3.16.41,1.36,0,2.66-.28,3.92-.83,1.26-.55,2.35-1.29,3.28-2.2.93-.91,1.68-1.97,2.26-3.18.58-1.21.87-2.5.87-3.86,0-1.51-.35-2.94-1.06-4.28-.7-1.34-1.66-2.76-2.86-4.28Z"/>
    <path d="M1067.42,551.53c-.8,0-1.48.39-2.04,1.17-.55.78-.83,1.75-.83,2.9,0,1.91.68,2.86,2.04,2.86.85,0,1.56-.41,2.11-1.24.55-.83.83-1.74.83-2.75,0-1.96-.7-2.94-2.11-2.94Z"/>
    <path d="M1079.44,510.87c-.38-.43-.87-.64-1.47-.64-1.26,0-2.17.72-2.75,2.15-.58,1.43-1.14,3.58-1.7,6.44l-4.97,25.25c-.1.35-.15.63-.15.83v.38c0,.6.17.9.53.9.3,0,.51-.11.64-.34.13-.23.26-.57.41-1.02l9.57-29.77c.3-1.06.45-1.86.45-2.41,0-.75-.19-1.34-.56-1.77Z"/>
  </g>
</svg>